<?xml version="1.0" encoding="UTF-8"?>
<!DOCTYPE svg PUBLIC "-//W3C//DTD SVG 1.1//EN" "http://www.w3.org/Graphics/SVG/1.1/DTD/svg11.dtd">
<svg xmlns="http://www.w3.org/2000/svg" version="1.1" width="512px" height="512px" style="shape-rendering:geometricPrecision; text-rendering:geometricPrecision; image-rendering:optimizeQuality; fill-rule:evenodd; clip-rule:evenodd" xmlns:xlink="http://www.w3.org/1999/xlink">
<g><path style="opacity:1" fill="#fbb812" d="M 101.5,422.5 C 100.833,422.5 100.5,422.167 100.5,421.5C 191.048,375.309 281.548,328.976 372,282.5C 372.5,227.834 372.667,173.168 372.5,118.5C 327.499,118.333 282.499,118.5 237.5,119C 229.683,140.129 222.017,161.296 214.5,182.5C 244.237,186.153 273.903,190.32 303.5,195C 268.497,232.528 233.164,269.695 197.5,306.5C 211.919,277.828 227.253,249.661 243.5,222C 216.664,216.638 189.664,212.138 162.5,208.5C 176.762,167.383 191.428,126.383 206.5,85.5C 274.163,84.5 341.83,84.1667 409.5,84.5C 409.5,160.5 409.5,236.5 409.5,312.5C 306.769,348.966 204.102,385.633 101.5,422.5 Z"/></g>
<g><path style="opacity:1" fill="#eeb013" d="M 197.5,306.5 C 196.833,307.167 196.833,307.167 197.5,306.5 Z"/></g>
<g><path style="opacity:1" fill="#e1a716" d="M 196.5,307.5 C 195.833,308.167 195.833,308.167 196.5,307.5 Z"/></g>
<g><path style="opacity:1" fill="#f0b114" d="M 100.5,421.5 C 100.5,422.167 100.833,422.5 101.5,422.5C 98.7846,424.072 95.7846,425.072 92.5,425.5C 94.8485,423.659 97.5152,422.326 100.5,421.5 Z"/></g>
<g><path style="opacity:1" fill="#e6ab15" d="M 92.5,425.5 C 91.8333,426.167 91.8333,426.167 92.5,425.5 Z"/></g>
</svg>
